<?xml version="1.0" encoding="UTF-8"?>
<svg width="36px" height="36px" viewBox="0 0 36 36" version="1.1" xmlns="http://www.w3.org/2000/svg" xmlns:xlink="http://www.w3.org/1999/xlink">
    <!-- Generator: Sketch 51.1 (57501) - http://www.bohemiancoding.com/sketch -->
    <title>Shape</title>
    <desc>Created with Sketch.</desc>
    <defs></defs>
    <g id="Symbols" stroke="none" stroke-width="1" fill="none" fill-rule="evenodd">
        <g id="Pop-up-&quot;Ajout-de-commentaire&quot;" transform="translate(-724.000000, -35.000000)" fill="#BB89BF" fill-rule="nonzero">
            <g id="Croix-de-fermeture" transform="translate(724.000000, 35.000000)">
                <path d="M30.729064,5.27093596 C23.7011494,-1.75697865 12.3032293,-1.75697865 5.27093596,5.27093596 C-1.75697865,12.3032293 -1.75697865,23.7011494 5.27093596,30.729064 C12.3032293,37.7569787 23.7011494,37.7569787 30.729064,30.729064 C37.7569787,23.7011494 37.7569787,12.3032293 30.729064,5.27093596 Z M25.5556978,25.6130805 C24.5738165,26.5630824 22.9798535,26.5503307 22.0139119,25.5843891 L18.041756,21.6122332 L14.0696,25.5843891 C13.0877188,26.5662704 11.481004,26.5662704 10.4991228,25.5843891 C9.51724155,24.6025079 9.51724155,22.9957931 10.4991228,22.0139119 L14.4712787,18.041756 L10.4991228,14.0696 C9.51724155,13.0877188 9.51724155,11.481004 10.4991228,10.4991228 C11.481004,9.51724155 13.0877188,9.51724155 14.0696,10.4991228 L18.041756,14.4712787 L22.0139119,10.4991228 C22.9957931,9.51724155 24.6025079,9.51724155 25.5843891,10.4991228 C26.5662704,11.481004 26.5662704,13.0877188 25.5843891,14.0696 L21.6122332,18.041756 L25.5843891,22.0139119 C26.5790221,23.0053569 26.5662704,24.6343871 25.5556978,25.6130805 Z" id="Shape"></path>
            </g>
        </g>
    </g>
</svg>