<?xml version="1.0" encoding="utf-8"?>
<!-- Generator: Adobe Illustrator 16.0.0, SVG Export Plug-In . SVG Version: 6.00 Build 0)  -->
<!DOCTYPE svg PUBLIC "-//W3C//DTD SVG 1.1//EN" "http://www.w3.org/Graphics/SVG/1.1/DTD/svg11.dtd">
<svg version="1.1" id="Calque_1" xmlns="http://www.w3.org/2000/svg" xmlns:xlink="http://www.w3.org/1999/xlink" x="0px" y="0px"
	 width="50px" height="50px" viewBox="0 0 50 50" enable-background="new 0 0 50 50" xml:space="preserve">
<path fill="#FFFFFF" d="M25,1C11.766,1,1,11.766,1,25c0,13.232,10.766,24,24,24c13.232,0,24-10.768,24-24C49,11.766,38.232,1,25,1z
	 M28,44.75V36h-6v8.75C13.375,43.443,6.557,36.625,5.25,28H14v-6H5.25C6.557,13.375,13.375,6.557,22,5.25V14h6V5.25
	C36.625,6.557,43.443,13.375,44.75,22H36v6h8.75C43.443,36.625,36.625,43.443,28,44.75z"/>
</svg>
