<?xml version="1.0" encoding="utf-8"?>
<!-- Generator: Adobe Illustrator 16.0.0, SVG Export Plug-In . SVG Version: 6.00 Build 0)  -->
<!DOCTYPE svg PUBLIC "-//W3C//DTD SVG 1.1//EN" "http://www.w3.org/Graphics/SVG/1.1/DTD/svg11.dtd">
<svg version="1.1" id="Calque_1" xmlns="http://www.w3.org/2000/svg" xmlns:xlink="http://www.w3.org/1999/xlink" x="0px" y="0px"
	 width="50px" height="50px" viewBox="-1 -1 50 50" enable-background="new -1 -1 50 50" xml:space="preserve">
<path fill="#A573A9" d="M24,1.579c-9.155,0-16.535,7.287-16.535,16.255C7.465,32.314,24,46.421,24,46.421
	s16.535-14.387,16.535-28.587C40.535,8.865,33.156,1.579,24,1.579z"/>
<path fill="#FFFFFF" d="M24,8.279c-4.897,0-8.882,3.984-8.882,8.882c0,4.898,3.985,8.883,8.882,8.883
	c4.898,0,8.883-3.984,8.883-8.883C32.883,12.264,28.898,8.279,24,8.279z M25.109,24.471v-3.239H22.89v3.239
	c-3.192-0.483-5.715-3.006-6.199-6.199h3.238v-2.221h-3.238c0.483-3.192,3.007-5.715,6.199-6.199v3.239h2.219V9.852
	c3.193,0.484,5.717,3.007,6.199,6.199h-3.236v2.221h3.236C30.826,21.464,28.303,23.987,25.109,24.471z"/>
</svg>
