<?xml version="1.0" encoding="UTF-8"?>
<svg width="52px" height="62px" viewBox="0 0 52 62" version="1.1" xmlns="http://www.w3.org/2000/svg" xmlns:xlink="http://www.w3.org/1999/xlink">
    <!-- Generator: Sketch 51.1 (57501) - http://www.bohemiancoding.com/sketch -->
    <title>Shape</title>
    <desc>Created with Sketch.</desc>
    <defs></defs>
    <g id="Accueil" stroke="none" stroke-width="1" fill="none" fill-rule="evenodd">
        <g id="Desktop-HD" transform="translate(-694.000000, -514.000000)" fill="#FFFFFF" fill-rule="nonzero">
            <g id="Header">
                <path d="M736.071498,519.552536 C736.841578,520.158546 737.578146,520.830185 738.282598,521.567451 C743.376437,526.629174 745.923356,532.729772 745.923356,539.87134 C745.923356,546.980094 743.376437,553.048576 738.282598,558.077485 C738.200912,558.191985 738.119226,558.347677 738.036842,558.543862 C737.839959,558.65906 737.659831,558.822431 737.49646,559.035373 L722.902639,574.390896 C721.01898,576.536368 719.160455,576.536368 717.325668,574.390896 L702.215202,558.420984 C702.133516,558.306485 702.051831,558.191985 701.969447,558.077485 C696.875608,553.048576 694.328688,546.980094 694.328688,539.87134 C694.328688,532.729772 696.875608,526.629174 701.969447,521.567451 C702.673899,520.830185 703.427223,520.158546 704.229419,519.552536 C708.734003,515.850845 714.048464,514 720.174894,514 C726.235697,514 731.534099,515.850845 736.071498,519.552536 Z M742.508613,539.797334 C742.508613,533.654846 740.313571,528.389257 735.924184,523.999871 C731.534099,519.610484 726.251755,517.415441 720.07715,517.415441 C713.934662,517.415441 708.668375,519.610484 704.278989,523.999871 C699.889602,528.389257 697.69456,533.655544 697.69456,539.797334 C697.69456,545.939124 699.889602,551.205411 704.278989,555.594798 C708.668375,559.984882 713.934662,562.179227 720.07715,562.179227 C726.252453,562.179227 731.534099,559.984184 735.924184,555.594798 C740.313571,551.206109 742.508613,545.939822 742.508613,539.797334 Z M725.11374,544.317976 L721.895182,525.793466 C721.829554,525.433211 721.927298,525.11345 722.189809,524.835578 C722.35318,524.638695 722.590558,524.524195 722.902639,524.491381 C723.262894,524.442509 723.549842,524.483003 723.762085,524.614259 C724.05741,524.77763 724.22916,525.072956 724.278032,525.498839 L726.538004,544.072919 C726.570818,544.351489 726.669259,544.605622 726.832631,544.834621 C727.029515,544.998691 727.266892,545.203254 727.545461,545.44901 C728.05303,545.793207 728.364413,545.981712 728.478913,546.014526 C728.806354,546.341968 729.109359,546.644973 729.387928,546.923542 C730.20688,547.939378 730.526642,549.438346 730.346514,551.419749 C730.248072,552.173771 730.067945,552.893583 729.806131,553.581977 C729.609248,554.286429 729.387928,554.769562 729.142871,555.031375 C728.585733,555.637386 728.05303,555.981583 727.546159,556.063269 C727.021835,556.144954 726.431882,555.981583 725.777,555.571758 C725.416047,555.34206 725.039734,554.94969 724.647363,554.392551 C724.204724,553.753727 723.827713,553.06603 723.517028,552.328764 C722.829332,550.510733 722.722512,549.020143 723.197266,547.856994 C723.328522,547.463925 723.533086,547.095292 723.811655,546.751793 C723.877283,546.637293 724.090224,546.342666 724.450479,545.867213 C724.696235,545.588643 724.860304,545.32683 724.94199,545.081075 C725.088605,544.850679 725.145855,544.596546 725.11374,544.317976 Z M715.604682,523.950999 L717.226528,533.434224 C717.292155,533.761665 717.226528,534.097485 717.030342,534.441682 C716.88233,534.621809 716.628895,534.859187 716.267942,535.154512 C715.842757,535.433081 715.587926,535.637645 715.50624,535.768901 C715.310054,536.046772 715.228369,536.300905 715.260484,536.530603 L718.356165,554.687178 C718.438548,555.014619 718.372222,555.317625 718.159979,555.596194 C717.963794,555.825891 717.692904,555.956449 717.349405,555.989263 C717.071534,556.038135 716.792267,555.997641 716.514396,555.866385 C716.267942,555.6702 716.112948,555.374874 716.047321,554.981805 L713.88579,536.77566 C713.820162,536.529904 713.648413,536.325341 713.369844,536.16197 C713.238588,536.014656 712.936281,535.842208 712.460828,535.646023 C712.002829,535.514767 711.690748,535.375832 711.527376,535.228518 C711.215993,534.949949 711.035866,534.655321 710.986994,534.343938 L709.85596,524.786008 C709.823147,524.474625 709.921588,524.294498 710.151286,524.245626 C710.397041,524.212812 710.535977,524.351748 710.568791,524.663131 L711.699126,532.574779 C711.73194,532.754906 711.830382,532.90222 711.994451,533.016719 C712.108253,533.098405 712.223451,533.139597 712.33795,533.139597 C712.436392,533.106783 712.534136,533.033476 712.632577,532.918278 C712.714263,532.787022 712.722641,532.632028 712.657013,532.451901 L711.527376,524.491381 C711.493864,524.212812 711.609062,524.05712 711.870875,524.025005 C712.084515,524.008947 712.206695,524.139504 712.239508,524.418074 L713.492721,532.918976 C713.558349,533.115859 713.615599,533.254795 713.664471,533.337179 C713.811784,533.451679 713.942342,533.484492 714.05754,533.435621 C714.188796,533.435621 714.271179,533.378371 714.303993,533.263871 C714.435249,533.148673 714.492499,532.992982 714.475743,532.796796 L713.173658,524.295894 C713.140844,523.984511 713.239286,523.812761 713.468984,523.779947 C713.746855,523.747133 713.894168,523.886069 713.910924,524.197452 L715.04126,532.157972 C715.074073,532.305286 715.172515,532.419785 715.335887,532.502169 C715.434329,532.584553 715.532072,532.608291 715.631212,532.576175 C715.745712,532.576175 715.876967,532.526605 716.024281,532.428861 C716.073153,532.313664 716.081531,532.174728 716.048717,532.011357 L714.844376,524.075273 C714.811562,523.747832 714.93444,523.567704 715.213009,523.53489 C715.44131,523.467168 715.572566,523.606802 715.604682,523.950999 Z" id="Shape"></path>
            </g>
        </g>
    </g>
</svg>