<?xml version="1.0" encoding="UTF-8"?>
<svg width="27px" height="27px" viewBox="0 0 27 27" version="1.1" xmlns="http://www.w3.org/2000/svg" xmlns:xlink="http://www.w3.org/1999/xlink">
    <!-- Generator: Sketch 51.1 (57501) - http://www.bohemiancoding.com/sketch -->
    <title>Shape</title>
    <desc>Created with Sketch.</desc>
    <defs></defs>
    <g id="Accueil" stroke="none" stroke-width="1" fill="none" fill-rule="evenodd">
        <g id="Desktop-HD" transform="translate(-195.000000, -1423.000000)" fill="#FFFFFF" fill-rule="nonzero">
            <g id="Bouton-ajouter" transform="translate(165.000000, 1401.000000)">
                <g id="noun_Plus_604132" transform="translate(30.000000, 22.000000)">
                    <g id="Group">
                        <path d="M13.5,0 C6.0548163,0 0,6.05481 0,13.5 C0,20.94519 6.0548163,27 13.5,27 C20.9451837,27 27,20.94519 27,13.5 C27,6.05481 20.9451837,0 13.5,0 Z M13.5,1.8 C19.9723917,1.8 25.2,7.027602 25.2,13.5 C25.2,19.97238 19.9723917,25.2 13.5,25.2 C7.0276083,25.2 1.8,19.97238 1.8,13.5 C1.8,7.027602 7.0276083,1.8 13.5,1.8 Z M13.490625,5.98125 C13.2502833,5.98372555 13.020915,6.08222414 12.8536207,6.25480135 C12.6863265,6.42737856 12.5950044,6.65969748 12.6,6.9 L12.6,12.6 L6.9,12.6 C6.86877122,12.5983715 6.83747878,12.5983715 6.80625,12.6 C6.48467082,12.6166929 6.19643189,12.8036975 6.050132,13.0905566 C5.90383211,13.3774157 5.92170307,13.7205382 6.0970117,13.9906469 C6.27232033,14.2607556 6.57842664,14.4168046 6.9,14.4 L12.6,14.4 L12.6,20.1 C12.5954097,20.4245723 12.7659378,20.7264732 13.0462856,20.8900989 C13.3266334,21.0537247 13.6733666,21.0537247 13.9537144,20.8900989 C14.2340622,20.7264732 14.4045903,20.4245723 14.4,20.1 L14.4,14.4 L20.1,14.4 C20.4245723,14.4045903 20.7264732,14.2340622 20.8900989,13.9537144 C21.0537247,13.6733666 21.0537247,13.3266334 20.8900989,13.0462856 C20.7264732,12.7659378 20.4245723,12.5954097 20.1,12.6 L14.4,12.6 L14.4,6.9 C14.4050638,6.65644571 14.3111902,6.42123976 14.1398197,6.24810256 C13.9684492,6.07496536 13.7342184,5.9786844 13.490625,5.98125 Z" id="Shape"></path>
                    </g>
                </g>
            </g>
        </g>
    </g>
</svg>